<?xml version="1.0" standalone="no"?>
<!DOCTYPE svg PUBLIC "-//W3C//DTD SVG 20010904//EN"
 "http://www.w3.org/TR/2001/REC-SVG-20010904/DTD/svg10.dtd">
<svg version="1.0" xmlns="http://www.w3.org/2000/svg"
 width="542.000000pt" height="542.000000pt" viewBox="0 0 542.000000 542.000000"
 preserveAspectRatio="xMidYMid meet">
<metadata>
Created by potrace 1.11, written by Peter Selinger 2001-2013
</metadata>
<g transform="translate(0.000000,542.000000) scale(0.100000,-0.100000)"
fill="#000000" stroke="none">
<path d="M2992 5090 c-29 -13 -55 -18 -77 -14 -100 15 -178 -105 -129 -197 11
-22 18 -56 19 -96 0 -60 -1 -61 -26 -58 -14 2 -49 -5 -77 -15 -29 -10 -52 -16
-52 -14 0 3 -18 -5 -40 -17 -50 -28 -74 -76 -67 -136 2 -24 2 -45 -2 -47 -3
-2 -26 -7 -51 -11 -45 -6 -46 -6 -58 27 -17 47 -15 93 4 112 8 9 12 16 8 16
-5 0 -3 5 4 12 16 16 15 87 -2 117 -11 20 -11 30 1 61 12 29 12 45 4 77 -21
79 -92 118 -171 94 -26 -8 -46 -8 -65 -1 -63 24 -110 6 -182 -71 -60 -64 -64
-71 -65 -118 -1 -73 46 -133 112 -143 16 -2 34 -17 50 -41 14 -21 39 -42 57
-49 20 -7 36 -22 42 -39 5 -14 18 -35 28 -45 32 -31 36 -54 10 -63 -15 -6 -27
-4 -38 5 -23 20 -73 28 -98 15 -23 -13 -55 -67 -46 -81 3 -5 -5 -12 -17 -15
-13 -4 -37 -14 -55 -22 -29 -13 -34 -13 -55 1 -12 9 -30 16 -40 16 -11 0 -24
14 -33 37 -9 21 -24 47 -35 58 -11 12 -18 35 -18 58 0 20 -8 50 -18 65 -13 19
-19 46 -19 89 0 67 -20 108 -66 130 -46 23 -74 21 -159 -11 -94 -35 -130 -71
-130 -131 0 -21 -8 -39 -25 -55 -35 -33 -48 -80 -36 -127 18 -67 66 -103 137
-103 23 0 34 -5 34 -15 0 -8 17 -25 38 -38 29 -19 48 -23 85 -21 51 4 90 -10
120 -44 17 -19 15 -21 -74 -88 -50 -38 -101 -75 -113 -83 -11 -8 -57 -51 -101
-95 -99 -98 -124 -107 -178 -59 -20 18 -43 33 -50 33 -7 0 -21 19 -32 43 -11
23 -33 51 -50 62 -17 11 -31 31 -33 45 -5 35 -37 84 -64 97 -79 39 -120 28
-208 -57 -66 -64 -70 -71 -70 -112 0 -24 4 -49 9 -57 5 -8 3 -27 -6 -48 -44
-106 51 -213 162 -182 21 6 42 4 72 -7 26 -10 57 -14 77 -11 33 5 34 4 27 -16
-5 -12 -6 -27 -4 -34 3 -7 -9 -29 -26 -50 -38 -49 -46 -99 -22 -145 17 -35 17
-37 -6 -94 -22 -53 -28 -59 -56 -61 -23 -2 -38 5 -64 32 -19 19 -39 34 -45 32
-6 -1 -22 18 -34 43 -12 25 -33 52 -48 59 -17 10 -28 26 -32 50 -13 69 -54
107 -123 116 -53 6 -78 -4 -130 -54 -23 -23 -46 -41 -50 -41 -5 0 -16 -18 -26
-41 -15 -33 -17 -49 -9 -88 7 -35 6 -55 -3 -77 -17 -40 -16 -70 3 -110 29 -61
119 -94 175 -63 13 6 25 7 32 1 42 -32 126 -32 166 1 15 13 71 10 85 -4 6 -5
16 -9 23 -9 7 0 21 -7 32 -16 15 -14 17 -22 10 -48 -11 -36 -38 -189 -46 -255
-2 -25 -6 -104 -7 -175 -1 -86 -5 -131 -13 -133 -6 -2 -28 5 -49 16 -21 12
-48 21 -60 21 -12 0 -26 11 -34 25 -15 28 -68 65 -94 65 -9 0 -16 8 -16 17 0
25 -67 82 -105 89 -60 11 -122 -22 -159 -84 -6 -10 -21 -34 -33 -53 -27 -40
-29 -88 -7 -132 9 -17 18 -54 19 -82 1 -27 8 -61 14 -75 30 -63 118 -85 186
-49 27 15 47 19 74 14 44 -7 86 7 122 41 22 21 37 26 81 26 79 1 95 -13 108
-94 7 -37 9 -71 6 -76 -2 -4 -18 -7 -35 -6 -40 3 -90 -40 -100 -87 -13 -58 33
-139 94 -165 36 -15 76 -74 50 -74 -9 0 -26 6 -38 14 -29 18 -118 27 -157 16
-17 -5 -40 -20 -50 -33 -15 -18 -26 -23 -49 -19 -44 6 -100 -23 -116 -60 -26
-64 1 -152 58 -190 18 -11 41 -39 52 -61 27 -56 62 -79 118 -79 53 0 88 20
117 67 13 21 31 35 51 39 37 7 86 54 95 92 8 31 44 65 79 75 23 7 21 9 101
-116 35 -55 137 -186 191 -244 l22 -25 -30 -18 c-16 -10 -35 -30 -42 -45 -14
-34 -25 -43 -52 -43 -11 0 -32 -8 -45 -17 -17 -12 -47 -18 -95 -19 -93 -3
-141 -24 -163 -72 -12 -26 -24 -38 -42 -40 -52 -7 -85 -42 -93 -98 -9 -63 57
-146 126 -160 12 -2 30 -15 41 -29 69 -95 219 -61 243 55 3 18 16 37 32 46 40
24 63 61 65 108 2 54 34 98 88 124 48 22 72 46 83 80 7 23 7 23 45 -12 21 -19
51 -42 67 -52 15 -10 44 -30 63 -45 19 -14 75 -50 125 -78 l89 -51 -3 -43 c-2
-33 -10 -49 -37 -73 -19 -18 -34 -38 -34 -46 0 -9 -20 -23 -45 -32 -28 -11
-51 -29 -62 -47 -12 -20 -25 -29 -43 -29 -65 0 -130 -68 -130 -138 0 -38 12
-64 49 -108 14 -17 32 -40 40 -52 23 -33 96 -57 137 -44 27 8 41 7 65 -5 51
-25 116 -12 156 31 18 20 33 46 34 58 2 37 -3 72 -11 88 -5 10 -1 24 11 39 23
28 25 100 4 140 -23 46 -4 122 42 163 27 25 83 5 131 -45 60 -63 127 -83 183
-53 18 9 32 10 43 4 17 -9 77 -7 121 5 31 8 53 -44 35 -81 -8 -15 -14 -42 -14
-60 -1 -19 -8 -39 -17 -45 -21 -16 -49 -71 -49 -96 0 -11 -12 -27 -29 -37 -64
-38 -86 -135 -43 -194 22 -31 156 -100 194 -100 34 0 77 16 102 38 10 9 35 17
55 18 112 1 172 156 91 229 -14 13 -20 31 -20 61 0 50 -29 106 -64 122 -19 8
-26 22 -33 64 -5 29 -7 59 -5 66 3 8 26 12 66 13 33 0 68 2 76 3 8 2 43 6 77
10 35 4 68 8 75 11 7 2 29 6 48 9 19 3 56 12 82 19 49 15 58 13 58 -11 0 -7
10 -28 23 -45 52 -73 58 -108 32 -170 -20 -48 -19 -75 4 -121 15 -29 17 -43
10 -66 -19 -54 5 -123 54 -154 34 -23 93 -26 131 -7 26 14 38 15 61 5 53 -22
99 0 166 79 32 39 59 76 60 81 1 6 2 25 4 41 1 17 -1 40 -6 53 -14 37 -65 79
-105 87 -25 4 -51 20 -74 44 -21 21 -51 41 -68 44 -23 5 -32 12 -32 26 0 11
-14 31 -32 45 -26 20 -32 32 -34 68 -1 24 -5 51 -9 60 -11 26 40 44 62 22 56
-55 147 -43 203 29 12 16 31 27 45 27 27 0 75 37 94 73 l13 25 57 -30 c64 -34
91 -71 91 -127 0 -40 45 -105 80 -116 14 -5 20 -15 20 -37 0 -40 65 -108 106
-109 66 -3 113 17 134 56 7 13 29 26 55 33 63 17 110 79 110 145 0 42 -4 52
-33 78 -20 18 -43 29 -61 29 -23 0 -30 5 -34 29 -7 34 -55 72 -101 79 -17 3
-56 4 -87 4 -42 -1 -58 2 -63 13 -3 8 -11 15 -18 15 -36 0 -88 22 -88 37 0 9
-12 29 -26 44 l-27 28 95 93 c88 86 188 201 188 216 0 4 11 19 23 34 21 24 26
26 42 14 10 -7 20 -23 22 -35 7 -48 68 -101 117 -101 9 0 16 -6 16 -12 1 -23
44 -67 80 -81 29 -11 71 -15 101 -8 19 4 79 75 79 94 0 15 11 28 33 40 41 22
65 62 73 119 11 83 -31 132 -112 130 -34 0 -47 4 -55 20 -16 29 -71 49 -116
42 -21 -3 -48 -7 -60 -9 -12 -1 -32 -9 -45 -17 -16 -11 -28 -12 -39 -5 -14 9
-13 15 9 61 14 28 40 76 58 106 18 30 35 73 37 95 4 33 12 70 31 150 2 6 6 27
11 48 9 46 28 48 73 5 31 -31 38 -33 101 -33 46 0 74 -5 86 -15 12 -10 39 -15
76 -15 52 0 62 3 88 30 32 32 52 98 41 130 -5 13 -1 29 11 46 35 50 30 122
-11 167 -11 11 -20 24 -20 28 0 16 -45 66 -73 81 -73 37 -176 -5 -192 -78 -4
-16 -10 -27 -15 -24 -13 8 -70 -26 -92 -56 -12 -16 -24 -29 -27 -29 -3 0 -5
73 -4 163 0 90 -3 183 -7 208 -4 24 -11 67 -15 94 -3 28 -10 67 -14 87 -5 20
-7 39 -4 42 3 2 24 -2 46 -10 34 -12 50 -13 85 -3 23 6 45 16 48 20 3 5 14 4
25 -2 59 -31 158 5 179 65 13 37 13 92 0 116 -7 13 -7 34 -1 61 12 52 -7 117
-41 139 -12 8 -39 32 -59 53 -35 35 -50 40 -109 39 -45 0 -49 -2 -84 -33 -26
-22 -37 -41 -41 -72 -5 -32 -13 -46 -34 -58 -25 -15 -29 -14 -57 5 -16 12 -44
35 -61 52 -17 18 -35 33 -40 35 -5 2 -31 42 -58 89 -49 84 -136 212 -162 239
-23 22 -11 45 37 69 34 17 54 21 80 17 74 -14 128 -11 157 10 20 15 37 19 58
15 37 -7 89 5 116 28 46 38 57 117 25 167 -11 17 -14 36 -10 62 7 49 -16 105
-55 132 -16 12 -33 21 -38 21 -6 0 -18 9 -28 20 -27 30 -81 41 -133 28 -51
-13 -93 -65 -96 -123 -2 -22 -11 -44 -25 -57 -24 -22 -52 -78 -45 -90 2 -3 -8
-16 -23 -27 -29 -21 -34 -26 -67 -61 -10 -10 -23 -17 -29 -13 -5 3 -27 0 -48
-7 -38 -13 -39 -12 -83 26 -24 21 -45 44 -45 50 -2 18 -56 64 -77 64 -11 0
-38 13 -60 29 -38 28 -39 31 -37 83 2 78 2 78 14 78 16 0 38 31 39 52 0 9 19
27 42 40 24 13 52 37 63 55 13 20 31 33 52 38 90 17 134 124 86 205 -9 16 -26
34 -38 40 -11 6 -25 21 -30 33 -20 44 -134 77 -169 48 -10 -8 -21 -8 -40 -1
-117 44 -229 -61 -183 -172 13 -31 13 -39 2 -56 -8 -10 -15 -35 -17 -54 -2
-37 18 -98 33 -98 17 0 9 -78 -12 -118 l-22 -40 -66 30 c-127 57 -308 117
-402 133 -42 7 -98 17 -123 21 -10 2 -21 6 -24 9 -12 11 -10 57 4 83 7 15 14
37 14 50 0 14 9 26 23 33 26 12 67 68 67 91 0 9 11 19 25 22 31 8 83 61 91 93
16 62 -16 132 -73 163 -17 9 -39 24 -48 34 -40 40 -89 45 -153 16z"/>
<path d="M2410 324 c0 -5 7 -18 15 -28 8 -11 15 -16 15 -10 0 5 -7 18 -15 28
-8 11 -15 16 -15 10z"/>
</g>
</svg>
